<mxfile host="app.diagrams.net" modified="2023-10-11T07:15:29.110Z" agent="Mozilla/5.0 (Windows NT 10.0; Win64; x64) AppleWebKit/537.36 (KHTML, like Gecko) Chrome/117.0.0.0 Safari/537.36 Edg/117.0.2045.60" etag="DgPpZnq2quXaxL2fk0UH" version="22.0.4" type="github">
  <diagram name="Страница — 1" id="_dJOqOqgwjPLGoxpS3Of">
    <mxGraphModel dx="1002" dy="569" grid="1" gridSize="10" guides="1" tooltips="1" connect="1" arrows="1" fold="1" page="0" pageScale="1" pageWidth="827" pageHeight="1169" math="0" shadow="0">
      <root>
        <mxCell id="0" />
        <mxCell id="1" parent="0" />
        <mxCell id="4PPBvnr6_l21Pf3fYFHr-2" value="" style="rounded=0;whiteSpace=wrap;html=1;" vertex="1" parent="1">
          <mxGeometry x="510" y="50" width="220" height="200" as="geometry" />
        </mxCell>
        <mxCell id="4PPBvnr6_l21Pf3fYFHr-3" value="" style="rounded=0;whiteSpace=wrap;html=1;" vertex="1" parent="1">
          <mxGeometry x="80" y="50" width="220" height="200" as="geometry" />
        </mxCell>
        <mxCell id="4PPBvnr6_l21Pf3fYFHr-4" value="" style="rounded=0;whiteSpace=wrap;html=1;" vertex="1" parent="1">
          <mxGeometry x="70" y="330" width="220" height="200" as="geometry" />
        </mxCell>
        <mxCell id="4PPBvnr6_l21Pf3fYFHr-6" value="" style="rounded=1;whiteSpace=wrap;html=1;" vertex="1" parent="1">
          <mxGeometry x="350" y="280" width="120" height="40" as="geometry" />
        </mxCell>
        <mxCell id="4PPBvnr6_l21Pf3fYFHr-7" value="роутер" style="text;strokeColor=none;align=center;fillColor=none;html=1;verticalAlign=middle;whiteSpace=wrap;rounded=0;" vertex="1" parent="1">
          <mxGeometry x="380" y="285" width="60" height="30" as="geometry" />
        </mxCell>
        <mxCell id="4PPBvnr6_l21Pf3fYFHr-8" value="" style="endArrow=none;html=1;rounded=0;" edge="1" parent="1">
          <mxGeometry width="50" height="50" relative="1" as="geometry">
            <mxPoint x="160" y="300" as="sourcePoint" />
            <mxPoint x="350" y="299.5" as="targetPoint" />
          </mxGeometry>
        </mxCell>
        <mxCell id="4PPBvnr6_l21Pf3fYFHr-9" value="" style="endArrow=none;html=1;rounded=0;" edge="1" parent="1">
          <mxGeometry width="50" height="50" relative="1" as="geometry">
            <mxPoint x="470" y="299.5" as="sourcePoint" />
            <mxPoint x="640" y="299.5" as="targetPoint" />
          </mxGeometry>
        </mxCell>
        <mxCell id="4PPBvnr6_l21Pf3fYFHr-10" value="" style="endArrow=none;html=1;rounded=0;entryX=0.373;entryY=1.012;entryDx=0;entryDy=0;entryPerimeter=0;" edge="1" parent="1" target="4PPBvnr6_l21Pf3fYFHr-3">
          <mxGeometry width="50" height="50" relative="1" as="geometry">
            <mxPoint x="160" y="330" as="sourcePoint" />
            <mxPoint x="160" y="260" as="targetPoint" />
          </mxGeometry>
        </mxCell>
        <mxCell id="4PPBvnr6_l21Pf3fYFHr-11" value="" style="endArrow=none;html=1;rounded=0;entryX=0.593;entryY=1.004;entryDx=0;entryDy=0;entryPerimeter=0;" edge="1" parent="1" target="4PPBvnr6_l21Pf3fYFHr-2">
          <mxGeometry width="50" height="50" relative="1" as="geometry">
            <mxPoint x="640" y="300" as="sourcePoint" />
            <mxPoint x="642" y="272" as="targetPoint" />
          </mxGeometry>
        </mxCell>
        <mxCell id="4PPBvnr6_l21Pf3fYFHr-13" value="сервер стройбет" style="text;strokeColor=none;align=center;fillColor=none;html=1;verticalAlign=middle;whiteSpace=wrap;rounded=0;" vertex="1" parent="1">
          <mxGeometry x="590" y="50" width="60" height="30" as="geometry" />
        </mxCell>
        <mxCell id="4PPBvnr6_l21Pf3fYFHr-14" value="ПК Менеджера" style="text;strokeColor=none;align=center;fillColor=none;html=1;verticalAlign=middle;whiteSpace=wrap;rounded=0;" vertex="1" parent="1">
          <mxGeometry x="90" y="60" width="60" height="30" as="geometry" />
        </mxCell>
        <mxCell id="4PPBvnr6_l21Pf3fYFHr-15" value="ПК Инвестора" style="text;strokeColor=none;align=center;fillColor=none;html=1;verticalAlign=middle;whiteSpace=wrap;rounded=0;" vertex="1" parent="1">
          <mxGeometry x="80" y="340" width="60" height="30" as="geometry" />
        </mxCell>
        <mxCell id="4PPBvnr6_l21Pf3fYFHr-16" value="" style="rounded=0;whiteSpace=wrap;html=1;" vertex="1" parent="1">
          <mxGeometry x="730" y="420" width="140" height="120" as="geometry" />
        </mxCell>
        <mxCell id="4PPBvnr6_l21Pf3fYFHr-17" value="ПК Заказчика" style="text;strokeColor=none;align=center;fillColor=none;html=1;verticalAlign=middle;whiteSpace=wrap;rounded=0;" vertex="1" parent="1">
          <mxGeometry x="800" y="430" width="60" height="30" as="geometry" />
        </mxCell>
        <mxCell id="4PPBvnr6_l21Pf3fYFHr-18" value="" style="rounded=0;whiteSpace=wrap;html=1;" vertex="1" parent="1">
          <mxGeometry x="740" y="500" width="100" height="30" as="geometry" />
        </mxCell>
        <mxCell id="4PPBvnr6_l21Pf3fYFHr-19" value="браузер" style="text;strokeColor=none;align=center;fillColor=none;html=1;verticalAlign=middle;whiteSpace=wrap;rounded=0;" vertex="1" parent="1">
          <mxGeometry x="760" y="500" width="60" height="30" as="geometry" />
        </mxCell>
        <mxCell id="4PPBvnr6_l21Pf3fYFHr-20" value="" style="whiteSpace=wrap;html=1;aspect=fixed;" vertex="1" parent="1">
          <mxGeometry x="430" y="380" width="80" height="80" as="geometry" />
        </mxCell>
        <mxCell id="4PPBvnr6_l21Pf3fYFHr-21" value="сайт" style="text;strokeColor=none;align=center;fillColor=none;html=1;verticalAlign=middle;whiteSpace=wrap;rounded=0;" vertex="1" parent="1">
          <mxGeometry x="440" y="405" width="60" height="30" as="geometry" />
        </mxCell>
        <mxCell id="4PPBvnr6_l21Pf3fYFHr-22" value="" style="endArrow=none;html=1;rounded=0;exitX=0;exitY=0.5;exitDx=0;exitDy=0;entryX=1;entryY=0.75;entryDx=0;entryDy=0;" edge="1" parent="1" source="4PPBvnr6_l21Pf3fYFHr-18" target="4PPBvnr6_l21Pf3fYFHr-20">
          <mxGeometry width="50" height="50" relative="1" as="geometry">
            <mxPoint x="390" y="310" as="sourcePoint" />
            <mxPoint x="440" y="260" as="targetPoint" />
          </mxGeometry>
        </mxCell>
        <mxCell id="4PPBvnr6_l21Pf3fYFHr-23" value="" style="endArrow=none;html=1;rounded=0;exitX=0.25;exitY=0;exitDx=0;exitDy=0;entryX=0.567;entryY=1.09;entryDx=0;entryDy=0;entryPerimeter=0;" edge="1" parent="1" source="4PPBvnr6_l21Pf3fYFHr-20" target="4PPBvnr6_l21Pf3fYFHr-6">
          <mxGeometry width="50" height="50" relative="1" as="geometry">
            <mxPoint x="390" y="310" as="sourcePoint" />
            <mxPoint x="440" y="260" as="targetPoint" />
          </mxGeometry>
        </mxCell>
        <mxCell id="4PPBvnr6_l21Pf3fYFHr-24" value="" style="endArrow=none;dashed=1;html=1;rounded=0;" edge="1" parent="1" source="4PPBvnr6_l21Pf3fYFHr-20" target="4PPBvnr6_l21Pf3fYFHr-26">
          <mxGeometry width="50" height="50" relative="1" as="geometry">
            <mxPoint x="390" y="310" as="sourcePoint" />
            <mxPoint x="580" y="320" as="targetPoint" />
            <Array as="points">
              <mxPoint x="540" y="310" />
            </Array>
          </mxGeometry>
        </mxCell>
        <mxCell id="4PPBvnr6_l21Pf3fYFHr-25" value="" style="endArrow=none;dashed=1;html=1;rounded=0;" edge="1" parent="1" source="4PPBvnr6_l21Pf3fYFHr-19" target="4PPBvnr6_l21Pf3fYFHr-26">
          <mxGeometry width="50" height="50" relative="1" as="geometry">
            <mxPoint x="390" y="310" as="sourcePoint" />
            <mxPoint x="580" y="270" as="targetPoint" />
            <Array as="points">
              <mxPoint x="650" y="300" />
            </Array>
          </mxGeometry>
        </mxCell>
        <mxCell id="4PPBvnr6_l21Pf3fYFHr-27" value="" style="rounded=0;whiteSpace=wrap;html=1;" vertex="1" parent="1">
          <mxGeometry x="80" y="460" width="120" height="60" as="geometry" />
        </mxCell>
        <mxCell id="4PPBvnr6_l21Pf3fYFHr-28" value="APM: инвестрой" style="text;strokeColor=none;align=center;fillColor=none;html=1;verticalAlign=middle;whiteSpace=wrap;rounded=0;" vertex="1" parent="1">
          <mxGeometry x="110" y="475" width="60" height="30" as="geometry" />
        </mxCell>
        <mxCell id="4PPBvnr6_l21Pf3fYFHr-29" value="" style="rounded=0;whiteSpace=wrap;html=1;" vertex="1" parent="1">
          <mxGeometry x="90" y="180" width="120" height="60" as="geometry" />
        </mxCell>
        <mxCell id="4PPBvnr6_l21Pf3fYFHr-30" value="APM: стройбет" style="text;strokeColor=none;align=center;fillColor=none;html=1;verticalAlign=middle;whiteSpace=wrap;rounded=0;" vertex="1" parent="1">
          <mxGeometry x="120" y="195" width="60" height="30" as="geometry" />
        </mxCell>
        <mxCell id="4PPBvnr6_l21Pf3fYFHr-31" value="" style="endArrow=none;html=1;rounded=0;exitX=1.005;exitY=0.536;exitDx=0;exitDy=0;exitPerimeter=0;" edge="1" parent="1" source="4PPBvnr6_l21Pf3fYFHr-3" target="4PPBvnr6_l21Pf3fYFHr-26">
          <mxGeometry width="50" height="50" relative="1" as="geometry">
            <mxPoint x="390" y="310" as="sourcePoint" />
            <mxPoint x="360" y="150" as="targetPoint" />
          </mxGeometry>
        </mxCell>
        <mxCell id="4PPBvnr6_l21Pf3fYFHr-32" value="" style="endArrow=none;html=1;rounded=0;exitX=1;exitY=0.5;exitDx=0;exitDy=0;entryX=0;entryY=0.75;entryDx=0;entryDy=0;" edge="1" parent="1" source="4PPBvnr6_l21Pf3fYFHr-4" target="4PPBvnr6_l21Pf3fYFHr-26">
          <mxGeometry width="50" height="50" relative="1" as="geometry">
            <mxPoint x="390" y="310" as="sourcePoint" />
            <mxPoint x="480" y="250" as="targetPoint" />
          </mxGeometry>
        </mxCell>
        <mxCell id="4PPBvnr6_l21Pf3fYFHr-33" value="" style="rounded=0;whiteSpace=wrap;html=1;" vertex="1" parent="1">
          <mxGeometry x="530" y="80" width="180" height="150" as="geometry" />
        </mxCell>
        <mxCell id="4PPBvnr6_l21Pf3fYFHr-35" value="" style="rounded=0;whiteSpace=wrap;html=1;" vertex="1" parent="1">
          <mxGeometry x="550" y="110" width="140" height="110" as="geometry" />
        </mxCell>
        <mxCell id="4PPBvnr6_l21Pf3fYFHr-12" value="" style="shape=cylinder3;whiteSpace=wrap;html=1;boundedLbl=1;backgroundOutline=1;size=15;" vertex="1" parent="1">
          <mxGeometry x="570" y="135" width="60" height="80" as="geometry" />
        </mxCell>
        <mxCell id="4PPBvnr6_l21Pf3fYFHr-26" value="СУБД" style="text;strokeColor=none;align=center;fillColor=none;html=1;verticalAlign=middle;whiteSpace=wrap;rounded=0;" vertex="1" parent="1">
          <mxGeometry x="570" y="160" width="60" height="60" as="geometry" />
        </mxCell>
        <mxCell id="4PPBvnr6_l21Pf3fYFHr-36" value="linux server" style="text;strokeColor=none;align=center;fillColor=none;html=1;verticalAlign=middle;whiteSpace=wrap;rounded=0;" vertex="1" parent="1">
          <mxGeometry x="570" y="80" width="100" height="30" as="geometry" />
        </mxCell>
      </root>
    </mxGraphModel>
  </diagram>
</mxfile>
